<?xml version="1.0" standalone="no"?>
<!DOCTYPE svg PUBLIC "-//W3C//DTD SVG 20010904//EN"
 "http://www.w3.org/TR/2001/REC-SVG-20010904/DTD/svg10.dtd">
<svg version="1.0" xmlns="http://www.w3.org/2000/svg"
 width="260.000000pt" height="260.000000pt" viewBox="0 0 260.000000 260.000000"
 preserveAspectRatio="xMidYMid meet">
<metadata>
Created by potrace 1.11, written by Peter Selinger 2001-2013
</metadata>
<g transform="translate(0.000000,260.000000) scale(0.100000,-0.100000)"
fill="#000000" stroke="none">
<path d="M1214 2473 c-43 -65 -104 -155 -136 -200 -32 -45 -58 -86 -58 -91 0
-6 -4 -12 -8 -14 -8 -3 -43 -53 -275 -395 l-117 -172 132 -195 c73 -107 135
-195 138 -196 9 0 130 181 130 195 0 7 -6 20 -12 27 -25 26 -78 106 -78 117 0
6 -3 11 -8 11 -4 0 -13 9 -20 20 -11 19 0 39 114 208 162 238 231 338 262 380
l24 33 80 -118 c45 -65 137 -200 204 -300 l124 -181 -65 -95 c-36 -53 -65 -99
-65 -103 0 -11 121 -194 129 -194 5 0 30 35 86 118 6 8 49 73 97 144 l88 130
-134 196 c-73 108 -171 252 -217 319 -46 68 -138 201 -203 298 -66 96 -123
175 -126 175 -4 0 -42 -53 -86 -117z"/>
<path d="M464 1372 c-11 -15 -73 -105 -138 -200 l-118 -173 21 -23 c12 -12 21
-25 21 -29 0 -4 22 -37 48 -74 26 -38 109 -157 183 -266 73 -108 187 -275 252
-370 65 -94 126 -184 135 -199 9 -16 20 -28 23 -28 3 0 17 17 30 37 25 39 233
344 301 443 56 80 58 84 68 100 5 8 11 12 13 10 6 -7 190 -277 207 -304 14
-22 161 -238 187 -274 6 -10 13 -15 15 -12 3 3 43 61 90 130 269 397 323 476
330 485 5 6 65 93 133 194 l125 184 -52 76 c-29 42 -56 78 -60 79 -4 2 -8 8
-8 13 0 5 -34 59 -76 119 l-76 109 -64 -94 c-35 -52 -64 -99 -64 -104 0 -6 29
-53 65 -105 l66 -95 -35 -48 c-37 -52 -199 -290 -303 -445 -36 -54 -69 -98
-73 -98 -4 0 -30 33 -56 73 -27 39 -52 74 -56 75 -5 2 -8 8 -8 14 0 6 -14 27
-30 48 -17 21 -30 42 -30 48 0 6 -4 12 -8 14 -10 4 -82 110 -82 120 0 5 30 51
66 104 l65 96 -67 99 -67 98 -27 -37 c-14 -20 -43 -63 -64 -94 -21 -32 -42
-58 -46 -58 -5 0 -26 26 -47 58 -20 31 -49 74 -64 94 l-26 37 -67 -98 -67 -98
65 -96 c36 -52 66 -99 66 -104 0 -7 -209 -318 -255 -379 -16 -22 -18 -19 -139
159 -68 100 -159 235 -204 301 l-81 118 64 94 c36 52 66 97 67 101 1 5 -27 52
-63 105 l-66 98 -19 -28z"/>
</g>
</svg>
